<svg version="1.2" xmlns="http://www.w3.org/2000/svg" viewBox="0 0 512 570" width="512" height="570"><style>.a{fill:#297bbf}.b{fill:none;stroke:#000;stroke-width:.4}.c{fill:#fff}.d{fill:#fff;stroke:#000;stroke-width:4.4}.e{fill:#fbd206}.f{fill:none;stroke:#000;stroke-width:5.2}.g{fill:none;stroke:#000;stroke-width:.7}</style><path class="a" d="m249.1 82c98.2 27.4 143.9 61.5 196.5 142.7 4.2 101.8-14 155.9-75.1 230.9-95.5 35.5-152.5 34.9-242.7 0-63.3-79.9-80.4-134.3-75-230.9 56.3-84.9 102.9-117.9 196.3-142.7z"/><path fill-rule="evenodd" class="b" d="m112.2 244.2l-4.3 6.3-8.6 13-5.7 16.5-3 7 0.5 11.7 4.8 7.9 1.7 9.3 2.3 6.5 5.1 9.5-0.4 4.9 1.2 5.2 4 7.3 3.8 4.7 1.1 5.7"/><path  d="m249.1 435.6c6-0.4 10.7-2.4 16.2-4.4 8.4-3.2 15.5-6.6 30.4-2.9 4 1 8.8 2.9 13.5 4.8 9.6 4.2 20.8 8.1 33.2 7l1-4.4c-5.3-4.2-7.3-10.1-8.9-17.6-0.4-2-0.9-3.9-1.4-6l-0.4-1.5-1.5-0.2c-9.2-0.7-15.7-2.9-23.9-5.9-3.5-1.2-7.2-2.6-11.6-3.9-12-3.7-22.9-1-33.1 1.6-5.4 1.4-8.3 2.6-13.1 2.8h-0.6c-4.8-0.1-7.7-1.4-13.1-2.8-10.1-2.6-21.1-5.3-33-1.6-4.4 1.3-8.2 2.7-11.7 3.9-8.1 3-14.7 5.2-23.8 5.9l-1.6 0.2-0.4 1.5c-0.6 2.1-0.9 4-1.4 6-1.6 7.5-3.3 13.8-8.7 18l0.9 3.4c12.4 1 22.9-2.4 32.6-6.6 4.6-2 9.1-3.8 13.2-4.8 14.9-3.8 22.7-0.1 31.2 3.1 5.5 2.1 10.3 4.1 16.2 4.5zm0-33.2c-8.1-2.2-16.4-6.1-23.6-11.4-1.5-1.2-3-2.3-4.4-3.6-0.6-0.5-1.1-1-1.6-1.5-9.4 3.9-23 8.2-36.8 10.7-11.6 2-23.3 2.7-33.3 0.7-10.3-2.1-18.5-7.1-22.3-16.6-0.7-1.7-1.2-3.4-1.6-5.3-7.9-5.2-11.8-11.6-13.1-16.7-0.3-1.1-0.4-2.2-0.5-3.1-0.1-0.5-0.1-1 0-1.6-5.5-5.4-8.7-11-9.2-16.3-0.1-1.1-0.1-2.2 0.1-3.3 0.1-0.6 0.2-1.3 0.4-1.8h0.1c-2.8-3.3-4.9-6.6-6.4-10.4-1.6-4-2.3-8.5-2-13.9-9.8-9-8.6-22.9-2.6-34.7 7-13.9 16.2-27 20.3-38.6 2.3-6.5 4-2.4 4-0.4 0 9.6-1.5 20-3.5 29.3-0.2 1-0.4 1.9-1.1 5.1-1 4.8-1 9.3 0.4 12.5 0.5 1.4 1.3 2.4 2.3 3.4 1 0.8 2.4 1.5 4 1.8 3.8 0.8 9.1-0.1 16.2-3 17.6-7.4 34.5-13.9 46.6-14.7 13.5-1 21.4 4.4 18.7 21.6-0.3 2.4-0.7 4.8-1.1 7-1 5.7-1.5 9-1.1 12 0.3 2.4 0.9 5 2.5 7.7 1.4 2.3 3.5 4.5 6.8 6.8 0.1-0.4 0.3-0.9 0.5-1.3-1-9.8 0-19.6 4.1-28.7 0.8-1.6 1.5-3.3 2.5-4.8l-18.8-91.9c-1.3-6.4-2.8-10.3-5.3-12.2-3.3-2.5-8.8-1.7-12.6-1.1-3.3 0.6-3.3-1.4-1-2.7 3.6-2 7.9-4.8 11.7-7.4 6.9-4.6 13.9-8.7 21.6-2.8 1-6.6 6.2-10.1 11.2-13.5 1.4-1.1 4.9-3.1 6.8-5.8 1.8-2.6 3.8-3.5 4.2-0.5 0 0.8 0.3 2.4 0.6 4.1 3.6-3.8 8.9-6 12.4-9.7 1.9-2.2 2-4.1 3.9-4.2 1.8 0.1 1.9 2 3.9 4.2 3.4 3.7 8.8 5.9 12.3 9.7 0.3-1.7 0.6-3.3 0.7-4.1 0.3-3 2.4-2.2 4.1 0.5 2 2.7 5.4 4.7 6.9 5.8 4.9 3.4 10 6.9 11 13.5 7.8-5.9 14.8-1.8 21.7 2.8 3.8 2.6 8.1 5.4 11.6 7.4 2.3 1.3 2.3 3.2-1 2.7-3.7-0.6-9.3-1.4-12.6 1.1-2.5 1.9-4 5.8-5.3 12.2l-18.8 91.9c0.9 1.5 1.7 3.2 2.4 4.8 4.2 9.1 5.1 18.9 4.2 28.7 0.2 0.4 0.3 0.9 0.5 1.3 3.2-2.3 5.3-4.5 6.7-6.8 1.6-2.7 2.3-5.3 2.5-7.7 0.4-3.1-0.1-6.3-1.1-12-0.3-2.2-0.8-4.6-1.1-7-2.6-17.1 5.2-22.6 18.7-21.6 12.1 0.8 29 7.3 46.6 14.7 7.2 3 12.5 3.8 16.3 3 1.6-0.3 2.9-0.9 4-1.8 1-0.9 1.8-2 2.3-3.4 1.4-3.2 1.4-7.7 0.4-12.5-0.6-3.2-0.8-4.1-1-5.1-1.9-9.3-3.5-19.7-3.5-29.3 0-2 1.8-6.1 4 0.4 4.1 11.6 13.4 24.7 20.3 38.6 6 11.8 7.2 25.8-2.5 34.7 0.2 5.4-0.5 9.9-2.1 13.9-1.4 3.8-3.6 7.1-6.3 10.4 0.2 0.5 0.4 1.2 0.4 1.8 0.2 1.1 0.2 2.3 0.2 3.3-0.5 5.3-3.8 10.8-9.3 16.3v1.6c0 0.9-0.2 2-0.5 3.1-1.2 5.1-5.1 11.5-13.1 16.7-0.3 1.9-0.9 3.6-1.5 5.3-3.9 9.5-12.1 14.4-22.4 16.6-9.9 2-21.7 1.3-33.3-0.7-13.8-2.4-27.3-6.8-36.7-10.7-0.6 0.5-1.1 1-1.7 1.5-1.5 1.3-2.9 2.4-4.4 3.6-7.2 5.3-15.5 9.2-23.6 11.4z"/><path class="c" d="m244.1 256.6c1.8 2.3 3.6 4.6 5.1 7.4 1.3-2.8 3.2-5.1 4.9-7.4 2.8-3.6 5.5-6.9 5.6-12 0.2-5.3-2.9-9.5-6-13.9-1.6-2.3-3.3-4.6-4.5-7-1.3 2.4-3 4.8-4.6 7-3 4.4-6.2 8.6-6 13.9 0.1 5.1 2.8 8.4 5.6 12z"/><path class="c" d="m127.7 371.8c4.4 1.9 8.3 2.9 12.3 3.3 3.6 0.4 7.3 0.3 11.3 0.2 2.8-0.1 3 4.3-0.1 4.5-4 0.2-7.8 0.2-11.7-0.2-2.9-0.3-5.8-0.9-8.9-1.9 0.2 0.6 0.4 1.1 0.6 1.6 3.2 7.9 10.3 12.1 19.2 13.9 9.3 1.9 20.5 1.2 31.6-0.8 11.6-2 22.9-5.5 31.7-8.7-13.1-2.4-23.2-6.9-30.3-13.8-7.9-7.7-11.7-18.3-10.9-32.2 0.5-9.1 3.3-18.4 5.8-27 1.8-6.1 3.5-11.8 4.2-16.8 1.4-9.2-1-16.1-13.5-17.9-9.6 2.6-20.7 7-32.2 11.8-8.1 3.4-14.3 4.3-18.9 3.3-2.4-0.5-4.3-1.4-5.9-2.7-1.6-1.4-2.8-3.1-3.6-5-1.8-4.1-1.8-9.5-0.7-15.1 0.1-0.4 0.6-2.8 1.1-5.2 1-5.2 2.1-10.1 2.9-15.2-2.1 4-4.4 8-6.8 12.1-7.2 12.7-14.5 25.4-12 36.1 3.1 13.5 18.9 16.5 30.5 18.2 5 0.8 4.4 5.2-1.1 4.3-6.4-1-13.7-2.6-19.6-5.2-1.2-0.5-2.3-1.1-3.4-1.8 0.1 3.5 0.7 6.4 1.7 9 5 12.8 14.7 14.3 27.1 15.5 5.7 0.6 5.5 5-0.3 4.5-6.2-0.6-13.1-1.7-18.2-3.8-0.9-0.4-1.7-0.8-2.5-1.2-1.2 6.8 4.2 13.3 10.8 16.5 6.7 3.3 14.7 3.2 19.9 2.8 4-0.3 4 4.4 0.1 4.4-4.2 0-8.8 0-13.2-0.6-3-0.4-5.8-1.1-8.4-2.1 0.1 0.4 0.1 0.7 0.2 1 1.1 4.2 4.3 9.5 11 14z"/><path class="c" d="m235.5 274.2c-9.7 6.4-15.8 13.8-19.4 21.7-2.7 6-3.9 12.4-4 18.9 2.5-3.7 5.5-7.1 8.5-10.5 6.7-7.6 13.5-15.4 14.7-27.3 0.1-0.9 0.1-1.8 0.2-2.8z"/><path class="c" d=""/><path class="c" d="m246.5 419.8v-13.2c-4.5-0.4-7-1.6-11.9-2.8-9.6-2.5-19.9-5.1-30.7-1.7-4.3 1.3-8.1 2.6-11.5 3.9-8 2.8-14.5 5.1-23.3 6-0.3 1.3-0.6 2.8-0.9 4.2-0.7 3-1.4 6.2-2.4 9.2 7.3-0.1 14-3.3 20.5-6.2 4.2-2 8.3-3.9 12.5-5 16.8-4.5 28.2-0.7 38.8 2.8 3.8 1.2 5.4 2 9 2.8z"/><path class="c" d="m370.6 371.8c-4.3 1.9-8.3 2.9-12.3 3.3-3.6 0.4-7.3 0.3-11.2 0.2-2.8-0.1-3.1 4.3 0 4.5 4.1 0.2 7.8 0.2 11.7-0.2 2.9-0.3 5.9-0.9 8.9-1.9-0.1 0.6-0.3 1.1-0.6 1.6-3.2 7.9-10.2 12.1-19.1 13.9-9.3 1.9-20.5 1.2-31.6-0.8-11.6-2-22.9-5.5-31.7-8.7 13.1-2.4 23.3-6.9 30.3-13.8 7.9-7.7 11.7-18.3 10.9-32.2-0.5-9.1-3.3-18.4-5.8-27-1.8-6.1-3.5-11.8-4.2-16.8-1.3-9.2 1-16.1 13.5-17.9 9.6 2.6 20.7 7 32.2 11.8 8.1 3.4 14.3 4.3 18.9 3.3 2.4-0.5 4.3-1.4 5.9-2.7 1.6-1.4 2.8-3.1 3.7-5 1.7-4.1 1.7-9.5 0.6-15.1-0.1-0.4-0.6-2.8-1.1-5.2-1.1-5.2-2.1-10.1-2.9-15.2 2.1 4 4.4 8 6.7 12.1 7.3 12.7 14.5 25.4 12.1 36.1-3.2 13.5-19 16.5-30.6 18.2-4.9 0.8-4.4 5.2 1.1 4.3 6.4-1 13.8-2.6 19.6-5.2 1.2-0.5 2.3-1.1 3.4-1.8-0.1 3.5-0.8 6.4-1.8 9-4.9 12.8-14.7 14.3-27.1 15.5-5.7 0.6-5.4 5 0.3 4.5 6.2-0.6 13.1-1.7 18.2-3.8 0.9-0.4 1.7-0.8 2.5-1.2 1.2 6.8-4.2 13.3-10.8 16.5-6.8 3.3-14.7 3.2-20 2.8-3.9-0.3-3.9 4.4 0 4.4 4.2 0 8.8 0 13.2-0.6 2.9-0.4 5.8-1.1 8.3-2.1 0 0.4-0.1 0.7-0.2 1-1 4.2-4.3 9.5-11 14z"/><path class="c" d="m262.8 274.2c9.7 6.4 15.8 13.8 19.4 21.7 2.8 6 4 12.4 4 18.9-2.4-3.7-5.4-7.1-8.5-10.5-6.6-7.6-13.5-15.4-14.7-27.3 0-0.9-0.1-1.8-0.2-2.8z"/><path class="c" d="m333.1 409.4c-0.1-0.2 0 0 0 0z"/><path class="c" d="m251.6 419.8v-13.2c4.6-0.4 7-1.6 11.9-2.8 9.6-2.5 20-5.1 30.7-1.7 4.3 1.3 8 2.6 11.5 3.9 8 2.8 14.5 5.1 23.3 6 0.3 1.3 0.7 2.8 1 4.2 0.6 3 1.3 6.2 2.2 9.2-7.3-0.1-13.9-3.3-20.4-6.2-4.2-2-8.3-3.9-12.6-5-16.8-4.5-28.1-0.7-38.7 2.8-3.8 1.2-5.4 2-9 2.8z"/><path class="c" d="m249.1 424.8c4.7-0.4 7.7-1.8 12.9-3.6 10-3.2 20.8-6.8 36.3-2.7 3.8 1 7.7 2.9 11.8 4.7 2.5 1.1 5.1 2.4 7.7 3.4 5.1 2 10.4 3.5 16.3 3.3 0.7 1.6 1.5 3.1 2.6 4.5-9.4-0.4-17.9-4-25.7-7.4-4.8-2.1-9.3-4-13.8-5.1-16.2-4.1-24.4-1-33.5 2.4-5.9 2.2-9.4 3.5-14.6 4-5.2-0.4-8.8-1.8-14.6-4-9.1-3.4-17.2-6.5-33.5-2.4-4.5 1.1-8.9 3-13.7 5.1-7.8 3.3-16.3 7-25.7 7.4 1-1.4 1.9-2.9 2.6-4.5 5.9 0.2 11.3-1.2 16.4-3.3q3.9-1.6 7.6-3.4c4-1.8 8-3.7 11.8-4.7 15.6-4.1 26.3-0.5 36.2 2.7 5.3 1.8 8.3 3.2 13 3.6z"/><path class="d" d="m249.1 432.9c6-0.5 10.7-2.5 16.2-4.5 8.4-3.2 16-6 30.9-2.3 4.1 1.1 8.4 2.9 13 4.9 9.7 4.1 20.3 8.7 32.7 7.8l1.3-4c-5.4-4.2-7.1-12.1-8.7-19.5-0.4-2-0.9-3.9-1.4-5.9l-0.4-1.6-1.5-0.1c-9.2-0.7-15.4-3.5-23.5-6.3-3.5-1.3-6.3-3-10.7-4.4-12-3.7-24.2-0.1-34.4 2.4-5.4 1.4-9.8 5-14.5 5.1h-0.7c-4.7-0.1-6.2-3.6-11.5-5.1-10.1-2.5-21.1-5.3-33-1.6-4.4 1.4-9.3 4.3-12.8 5.5-8 2.9-14.4 4.7-22.7 4.4l-1.6 0.1-0.4 1.6c-0.6 2-0.9 3.9-1.4 5.9-1.7 7.4-3.4 15.3-8.7 19.5l1.2 4c12.4 1 23.1-3.6 32.7-7.8 4.6-2 9-3.8 13.1-4.9 14.9-3.7 22.4-0.9 30.9 2.3 5.5 2 10.2 4 16.2 4.5z"/><path class="c" d="m249.1 365.1c-1.1 0-1.3 1.8-1.9 3.5-0.5 1.6-1.1 2.9-2 4.4-0.4 0.7-0.8 1.5-1.2 2.2-3.4 7.6 0.3 12.7 5 17.6 5-5.1 8.5-10 5.1-17.6-0.4-0.7-0.8-1.5-1.1-2.2-0.8-1.5-1.5-2.9-2-4.4-0.6-1.7-0.8-3.5-2-3.5z"/><path class="c" d="m258.1 260.3c-0.1 0.2-0.3 0.4-0.4 0.6-2.4 3.1-4.9 6.3-6 10.7-1.1 5-3.9 5.4-5 0.2-0.9-4-3-7-5.1-9.8v0.1q-0.7-0.8-1.3-1.7c0 5.5-0.1 12.4-0.5 17.1-1.4 13.3-8.6 21.7-15.8 29.7-5.6 6.4-11.1 12.7-13 21l-0.7 3-2.6-1.6c-5.4-3.1-8.8-6.5-10.8-9.9-2-3.4-2.8-6.6-3.1-9.4-0.5-3.7 0.1-7.1 1.1-13.3 0.3-1.8 0.6-3.9 1.1-6.9 1.9-13.1-4-17.2-14.1-16.6-1.2 0.1-2.4 0.3-3.8 0.5 8.5 3.9 10 11.2 8.7 20.5-0.7 5.4-2.5 11.3-4.3 17.5-2.5 8.4-5.1 17.4-5.6 26-0.7 12.5 2.6 22 9.5 28.8 7.1 6.9 18.1 11.2 32.5 13.3l1.3 0.6c1.2 1.3 2.4 2.5 3.7 3.6 1.4 1.2 2.7 2.3 4.1 3.4 4.8 3.5 14.6 10.8 20.4 10.7 6-0.1 21.6-10.7 21.6-10.7 0 0 2.9-2.2 4.2-3.4q2-1.7 3.8-3.6l1.3-0.6c14.4-2.1 25.3-6.4 32.4-13.3 7-6.8 10.3-16.3 9.6-28.8-0.5-8.7-3.1-17.6-5.6-26-1.9-6.2-3.6-12.1-4.4-17.5-1.3-9.3 0.3-16.6 8.7-20.5-1.3-0.2-2.6-0.4-3.8-0.5-10.1-0.7-16 3.5-14 16.6 0.5 3 0.8 5 1.1 6.9 1.1 6.1 1.7 9.6 1.2 13.3-0.4 2.8-1.2 6-3.2 9.4-2.1 3.4-5.4 6.8-10.7 9.9l-2.7 1.6-0.7-3c-1.9-8.3-7.4-14.6-13-21-7.1-8-14.4-16.4-15.8-29.7-0.5-4.7-0.6-11.7-0.5-17.2z"/><path class="c" d="m235.7 254c-0.9-2.1-1.5-4.5-1.6-7.3-0.2-6.7 3.3-11.6 6.9-16.5 3.2-4.4 5.7-7.3 6.7-13.7 0.5-3.1 2.3-2.6 2.7 0.1 1.1 6 3.7 9 7 13.6 3.4 4.9 7 9.8 6.8 16.5 0 2.8-0.7 5.3-1.6 7.3 0 4.7-0.1 10.8 0 15.3 7.6 4.6 13.4 9.8 17.7 15.3l0.1-0.4 17.9-87.2c1.6-7.5 3.3-12.2 7-14.9 1.4-1 2.9-1.7 4.9-2-0.5-0.4-1.1-0.7-1.6-1.1-5.7-3.8-11.4-7.6-17.4-3.8-2.2 1.4-3.2 2.5-3.7 4.9l-8.8 48.8c-0.8 3.7-5.2 3-4.3-1.2l8.5-47.2c0.6-3 1.4-6.2 0.6-9.2-1.3-4.3-5.4-7.1-9.2-9.7-1.7-1.3-3.3-2.4-4.7-3.6-0.1 1.1-0.3 2.2-0.5 3.1l-5.5 56.2c-0.4 3.4-4.8 3-4.4-1l4.7-47.8c0.5-4.8 0.7-7.1-2.9-10.6-1.5-1.4-3.4-2.8-5.1-4.2-1.7-1.3-3.5-2.4-4.9-3.9-0.7-0.7-1.4-1.4-1.9-2.2-0.5 0.8-1.1 1.5-1.9 2.2-1.4 1.4-3.2 2.6-5 3.9-1.7 1.4-3.4 2.7-5 4.2-3.6 3.4-3.3 5.8-2.9 10.6l4.7 47.8c0.4 4-4 4.4-4.4 1l-5.6-56.2c-0.1-0.9-0.2-2-0.4-3.1-1.5 1.2-3.1 2.3-4.8 3.6-3.7 2.5-7.8 5.3-9.1 9.7-0.8 3 0 6.3 0.5 9.2l8.5 47.2c0.9 4.2-3.5 4.9-4.3 1.2l-8.8-48.8c-0.4-2.4-1.5-3.5-3.7-4.9-6-3.9-11.6 0-17.3 3.8-0.5 0.4-1.1 0.7-1.6 1.1 1.9 0.3 3.5 1 4.9 2 3.6 2.7 5.4 7.4 7 14.9l17.9 87.2v0.4c4.3-5.5 10-10.7 17.6-15.3 0.1-4.5 0-10.6 0.1-15.3z"/><path  d="m337.8 427.2c0.3 0.8 0.6 1.5 1.1 2.3-9 2-19.2-1.9-28.4-6.1-7-3.1-13.9-6.2-20.5-6.5-7.6-0.4-14.6 0.4-21.5 2-6.8 1.6-13.5 4.2-20.5 7.7 0 0.1 0 0.1-0.1 0.1h-0.4c0 0 0 0 0-0.1 0 0-0.1 0-0.1-0.1-6.9-3.4-13.6-6.1-20.5-7.7-6.9-1.6-13.9-2.3-21.5-2-6.6 0.3-12.9 3.5-19.1 6.6-8.2 4-17 7.5-26.1 5.5l1.1-2.3c8.1 1.9 16.1-1.6 23.9-5.5 6.5-3.2 13.1-6.5 20.2-6.8 7.7-0.4 15 0.3 22.1 2 6.9 1.7 13.6 4.3 20.6 7.7 6.9-3.5 13.7-6 20.6-7.7 7.1-1.7 14.3-2.4 22.1-2 7 0.3 14.2 3.5 21.4 6.8 8.9 4 18.1 7.9 26.3 6z"/><path  d="m332.5 407c0.3 0.8 0.6 1.5 1 2.3-9 1.5-13.7-2.3-23-6.2-7-3.2-13.9-6.3-20.5-6.6-7.6-0.3-14.6 0.4-21.5 2-6.8 1.6-13.5 4.3-20.5 7.7 0 0.1 0 0.1-0.1 0.1l-0.2 0.2h-0.2c0 0-0.1 0-0.1-0.1 0 0-0.1 0-0.1-0.1-6.9-3.5-13.6-6.1-20.5-7.7-25.6-6.2-43.4 14.9-61.2 10.8l1-2.2c16.5 3.7 35.4-17.1 60.8-11 6.9 1.6 13.6 4.2 20.6 7.6 6.8-3.4 13.7-6 20.5-7.6 7.1-1.7 14.4-2.4 22.2-2.1 7 0.4 14.2 3.6 21.3 6.8 8.9 3.7 12.8 7.2 21 6.3z"/><path  d="m246 405.1h2.5v19.3h-2.5z"/><path  d="m117.7 218c-7.9-3.8-11.8-5.6-19.7-9.4-1.5 3.1-2.2 4.8-3.5 8-1.7-0.7-2.5-1-4.1-1.7 3.6-8.9 5.8-13.2 10.4-21.2 1.5 0.9 2.3 1.3 3.8 2.2-1.7 2.9-2.5 4.4-4 7.5 7.7 3.9 11.5 6 19.3 10-0.9 1.7-1.4 2.7-2.3 4.6z"/><path  d="m102.7 190.5c1.2-2 1.9-3 3.1-4.9 4.7 3.1 7.1 4.7 11.8 7.8 1.9 1.3 3.1 2 3.8 2.3 1 0.4 2 0.4 3 0.1 0.9-0.3 1.8-1 2.6-2.2 0.8-1.1 1.3-2.2 1.2-3.1-0.1-0.9-0.4-1.8-1.1-2.4-0.6-0.6-1.8-1.6-3.4-2.8-4.6-3.5-6.9-5.3-11.6-8.8 1.4-1.8 2.1-2.7 3.5-4.4 4.2 3.4 6.4 5.1 10.7 8.6 2.4 2 4.1 3.5 4.9 4.6 0.9 1 1.5 2.1 1.7 3.2 0.3 1.1 0.3 2.2 0 3.5-0.2 1.3-1 2.6-2 4.2-1.4 1.8-2.5 3.2-3.6 3.9-1.2 0.7-2.3 1.1-3.4 1.2-1.2 0.1-2.2 0-3.2-0.4-1.5-0.5-3.4-1.4-5.9-3-4.8-2.9-7.2-4.4-12-7.3z"/><path  d="m142.6 180.6c-6.4-6-9.6-9-15.9-14.9-2.2 2.4-3.2 3.6-5.3 6-1.3-1.1-2.1-1.7-3.4-2.8 5.7-6.8 8.7-10 15-15.8 1.2 1.3 1.7 2 3 3.3-2.3 2.1-3.5 3.2-5.7 5.4 6.2 6.2 9.3 9.3 15.5 15.4-1.3 1.3-2 1.9-3.2 3.4z"/><path  d="m162.3 162.8c-8-7.1-12.1-10.5-20.7-17.1 1.7-1.4 2.6-2 4.3-3.4 5.6 4.8 8.4 7.3 13.8 12.3-2.8-6.9-4.1-10.4-6.5-17.4 2.1-1.4 3.2-2.1 5.3-3.4 5.5 5.3 8.1 7.9 13.3 13.4-2.5-7-3.7-10.6-5.9-17.8 1.9-1.1 2.9-1.6 4.7-2.5 2.6 10.5 4.1 15.6 7.4 25.8-1.6 1-2.5 1.5-4.1 2.5-5.6-5.8-8.5-8.6-14.5-14.1 2.6 7.7 4 11.4 7 19-1.6 1.1-2.4 1.7-3.9 2.9z"/><path  d="m172.9 125.6c1.9-0.9 2.9-1.3 4.8-2.2 2.4 5.1 3.6 7.7 5.9 12.9 1 2 1.7 3.3 2 3.9 0.7 0.9 1.4 1.5 2.4 1.8 0.9 0.2 2 0.2 3.2-0.3 1.2-0.5 1.9-1.2 2.3-2 0.4-0.8 0.5-1.6 0.3-2.6-0.2-0.8-0.7-2.2-1.4-4.2-2.2-5.4-3.2-8.1-5.4-13.5 2-0.8 3-1.1 4.9-1.9 1.9 5.2 2.8 7.9 4.7 13q1.6 4.5 1.9 6.4c0.3 1.3 0.2 2.5-0.1 3.6-0.3 1-0.9 2-1.7 2.9q-1.3 1.3-3.6 2.3c-1.9 0.8-3.6 1.2-4.8 1.2-1.2-0.1-2.3-0.4-3.3-1-1-0.5-1.8-1.2-2.4-2q-1.4-1.8-3.4-5.8c-2.5-5-3.8-7.5-6.3-12.5z"/><path  d="m205.4 140.8c-3.2-10-4.8-14.9-8.1-24.9 4.2-1.3 6.3-1.9 10.6-3 2.7-0.6 4.7-0.8 6-0.6 1.4 0.2 2.5 0.8 3.4 1.8 1 1.1 1.6 2.4 2 3.9q0.5 2.8-0.7 5.1c-0.8 1.5-4.1 3.3-4.1 3.3 0 0.1 2.1 1 3 1.7 0.8 0.6 2 1.8 3.5 3.6 1.5 1.7 2.2 2.7 3.6 4.5-2.1 0.4-3.1 0.6-5.2 1-1.8-2-2.6-2.9-4.5-4.8-1.6-1.7-2.7-2.8-3.3-3.1-0.6-0.5-1.1-0.7-1.6-0.8-0.6 0-1.4 0.1-2.5 0.4-0.3 0.1-0.5 0.1-0.9 0.3 1.2 4.2 1.9 6.3 3.1 10.5-1.7 0.5-2.6 0.7-4.3 1.3zm0.1-15.9c1.4-0.4 2-0.5 3.5-0.9 2.2-0.5 3.7-1 4.2-1.3 0.5-0.4 0.8-0.8 1-1.4 0.2-0.6 0.2-1.3 0.1-2.1-0.2-0.9-0.6-1.5-1.1-1.9-0.6-0.4-1.3-0.7-2.2-0.6-0.4 0-1.6 0.3-3.6 0.8-1.6 0.4-2.3 0.6-3.8 1.1 0.8 2.5 1.1 3.8 1.8 6.3z"/><path  d="m226.8 135.8c-1.7-10.4-2.5-15.5-4.2-25.8 2-0.4 3.1-0.5 5.1-0.8 1.5 10.3 2.2 15.5 3.5 25.9-1.8 0.3-2.6 0.4-4.4 0.7z"/><path  d="m243.8 134c-0.5-10.4-0.7-15.7-1.3-26.1 2.1-0.1 3.2-0.1 5.2-0.1 0.1 4.1 0.2 6.1 0.2 10.2 3.9 0 5.8 0 9.6 0.2 0.2-4.1 0.3-6.2 0.4-10.3 2.1 0.1 3.2 0.1 5.2 0.3-0.7 10.4-1.1 15.7-1.8 26.1-1.8-0.1-2.6-0.1-4.4-0.2 0.2-4.6 0.3-6.9 0.5-11.4-3.8-0.2-5.6-0.2-9.4-0.2 0.1 4.6 0.1 6.9 0.2 11.4-1.8 0-2.6 0.1-4.4 0.2z"/><path  d="m285.4 137.8c-1.8-0.4-2.8-0.6-4.7-0.9-0.3-2.5-0.5-3.7-0.8-6.2-3.6-0.7-5.4-0.9-9-1.4-1.1 2.2-1.6 3.4-2.6 5.6-1.8-0.2-2.8-0.2-4.7-0.5 4.4-10.1 6.8-15.1 12.3-24.9 2.2 0.2 3.3 0.5 5.5 0.8 2.2 11 3 16.5 4 27.5zm-6.1-11.8c-0.6-4.1-0.9-6.1-1.6-10.2-1.9 3.7-2.9 5.5-4.7 9.2 2.6 0.4 3.8 0.6 6.3 1z"/><path  d="m287.8 138.4c2.6-10.1 4-15.2 6.5-25.4 2 0.5 3 0.8 4.9 1.3 2.2 7.9 3 11.8 4.3 19.6 2.3-6.6 3.6-9.9 5.9-16.4 1.8 0.6 2.8 1 4.5 1.6-3.7 9.8-5.6 14.7-9.5 24.4-1.6-0.6-2.5-0.9-4.2-1.5-1-7.6-1.8-11.4-3.7-19.1-1.9 6.6-2.9 9.9-4.8 16.4-1.5-0.4-2.4-0.6-4-1z"/><path  d="m319 121.2c3.6 1.5 5.3 2.2 8.8 3.9 1.9 1 3.4 1.9 4.2 2.7 1.1 1.2 1.9 2.4 2.3 4 0.3 1.6 0.4 3.2 0 4.9-0.3 1.7-1.1 3.6-2.4 5.8-1 1.8-2.2 3.3-3.4 4.4-1.5 1.4-3 2.4-4.4 2.9-1.2 0.4-2.5 0.5-3.9 0.3q-1.6-0.2-3.8-1.3c-3.1-1.4-4.5-2.2-7.7-3.4l10.3-24.2zm3 6.1c-2.9 6.4-4.3 9.5-7.3 15.8 1.3 0.6 1.8 0.8 3.1 1.4 1.1 0.6 2.1 0.9 2.6 1 0.8 0.2 1.5 0.2 2.2-0.1 0.7-0.2 1.5-0.8 2.3-1.7 0.9-0.8 1.8-2.2 2.7-3.9 1-1.8 1.6-3.3 1.8-4.4 0.2-1.1 0.2-2-0.1-2.9-0.3-0.8-0.8-1.5-1.6-2.2-0.5-0.5-1.7-1.2-3.6-2-0.9-0.5-1.3-0.6-2.1-1z"/><path  d="m345.2 167.4c-1.5-1.3-2.3-2-3.9-3.2 0.9-2.3 1.2-3.5 2-5.9-3-2.3-4.5-3.4-7.7-5.4-1.9 1.5-2.9 2.3-4.8 4-1.6-1.1-2.4-1.6-4-2.5 8.3-7.3 12.8-10.7 22.1-17.1 1.9 1.3 2.8 2 4.6 3.3-2.7 11-4.4 16.4-8.3 26.8zm-0.5-13.6c1.2-3.9 1.9-5.9 2.9-9.9-3.3 2.4-5 3.6-8.3 6.1 2.2 1.5 3.3 2.2 5.4 3.8z"/><path  d="m349.4 170.9c3-3.2 4.4-5 7.4-8.2 1.3-7 1.9-10.5 2.6-17.7 2 1.6 3 2.4 4.9 4.1-0.8 4.8-1.3 7.1-2.2 11.8 4.5-1.5 6.8-2.1 11.5-3.3 1.8 1.7 2.7 2.7 4.4 4.5-7.1 1.2-10.6 2-17.5 3.9-3.1 3.2-4.6 4.8-7.6 8-1.4-1.2-2-1.9-3.4-3.1z"/><path  d="m371.6 196.3c-1.2-1.8-1.8-2.7-3-4.3 1.4-2.1 2-3.2 3.4-5.3-2.4-3.1-3.6-4.7-6.2-7.6-2.3 1-3.5 1.5-5.7 2.5-1.4-1.4-2-2.2-3.5-3.6 10.1-4.7 15.3-6.9 25.9-10.4 1.6 1.8 2.3 2.7 3.8 4.6-5.4 10.1-8.4 15-14.8 24.1zm2.9-13.6c2.2-3.5 3.3-5.3 5.2-8.9-3.9 1.3-5.8 2.1-9.6 3.6 1.8 2 2.6 3.1 4.3 5.3z"/><path  d="m373.1 198.5c8.7-5.9 13.1-8.8 21.7-14.7 1.2 1.8 1.8 2.8 3 4.7-3.4 7.8-5.3 11.5-9.4 18.7 6.2-3.3 9.2-5 15.4-8.3 1 1.9 1.5 2.9 2.5 5l-23.4 11.7c-0.9-1.9-1.3-2.8-2.3-4.6 4.1-6.8 6-10.3 9.4-17.7-5.7 3.7-8.6 5.4-14.4 9.1-1-1.5-1.4-2.3-2.5-3.8z"/><path  d="m385.2 220.2c9.5-4.4 14.4-6.6 23.9-10.9 1 2.2 1.5 3.3 2.4 5.6-9.7 4-14.5 6.1-24.2 10-0.8-1.9-1.2-2.9-2.1-4.7z"/><path  d="m243.3 362.8c2.1-2 9.5-1.9 11.7-0.1 2.4 2 1.8 12.3 1.8 12.3 0 0 4.3 5.4 4.1 7.5-0.2 4.1-7.9 11.4-12.1 11.4-4.3 0-11.9-7.5-12.2-11.6-0.1-2.2 4.3-7.9 4.3-7.9 0 0 0.2-9.5 2.3-11.7zm0.2 12.3c0 0-3.1 4.6-2.9 6.5 0.1 3.4 5.4 9.6 8.3 9.6 2.9 0 8.1-6 8.3-9.4 0.1-1.8-2.9-6.2-2.9-6.2 0 0 0.5-8.4-1.2-10.1-1.5-1.5-6.6-1.6-8 0-1.5 1.7-1.6 9.6-1.6 9.6z"/><path class="c" d=""/><path class="c" d=""/><path class="c" d="m258.7 313.1c-3.6-5.8-7.1-12.4-9.6-20.3-3.1 8.1-1.3 16 0.2 22.8 1.7 7.8 3.5 15.6-0.5 27.8-1.5 4.4-5.3 1.4-4.2-1.2 6.8-15.9-1.4-30.9-3.4-35.3-1.6 5.6-6 11.9-8.5 17.3-3.3 7.5-4.6 17 0.1 24 0.9 1.3 2 2.6 3.4 3.7 1 0.8 2.2 1.6 3.6 2.4 0.8-0.6 1.7-1 2.6-1.4 0.3-0.2 0.6-0.3 0.8-0.4 1.8-0.6 3.7-1 5.7-1 2.9 0 5.6 0.7 7.9 2 0.4 0.2 0.9 0.5 1.3 0.8 8.6-4.5 10.7-12.7 9.7-20.5-0.2-1.6-0.6-3.3-1-4.9-0.5-1.6-1.1-3.2-1.7-4.6-1.7-3.9-4-7.5-6.3-11.2z"/><path class="e" d="m251.1 282.4c2.1 15 7 20.7 11.7 28.5 2.4 3.9 4.6 7.6 6.5 11.7 0.7 1.7 1.3 3.5 1.8 5.2 0.5 1.8 1 3.6 1.2 5.5 1.2 9.9-1.7 20.1-13.6 25.5l-1.4 0.7-1.1-0.9c-0.3-0.3-0.6-0.5-0.9-0.7-0.3-0.2-0.6-0.3-0.9-0.5-1.6-0.9-3.6-1.5-5.6-1.5-1.4 0-2.8 0.3-4 0.7-0.2 0.1-0.4 0.2-0.6 0.3q-1.5 0.6-2.7 1.7l-1.2 0.9-1.4-0.7h-0.1c-2.2-1-4.1-2.2-5.8-3.6-1.8-1.3-3.1-2.9-4.2-4.6-5.5-8.4-4.2-19.4-0.4-27.9 3.1-7 8.7-12.8 10.2-21.6 0.5-3.1 1-6.3 3.8-1 0.4 0.8 0.9 1.8 1.3 3.3-1.4-5.5 2.9-17.4 4.4-21.3 1.3-3.5 2.6-4.6 2.9 0.4z"/><path fill-rule="evenodd" class="f" d="m251.1 282.4c2.1 15 7 20.7 11.7 28.5 2.4 3.9 4.6 7.6 6.5 11.7"/><path class="f" d=""/><path fill-rule="evenodd" class="f" d="m269.2 322.6c0.7 1.6 1.4 3.4 1.9 5.2 0.5 1.7 0.9 3.6 1.1 5.4 1.3 9.9-1.7 20.2-13.6 25.6"/><path fill-rule="evenodd" class="f" d="m258.7 358.8l-1.4 0.6-1.2-0.9"/><path fill-rule="evenodd" class="f" d="m256.1 358.5c-0.3-0.3-0.5-0.4-0.8-0.6-0.3-0.3-0.6-0.4-1-0.6-1.6-0.9-3.5-1.4-5.6-1.4-1.4 0-2.7 0.2-3.9 0.7-0.2 0-0.5 0.1-0.6 0.2q-1.5 0.6-2.8 1.7"/><path fill-rule="evenodd" class="f" d="m241.4 358.5l-1.1 0.9-1.4-0.6h-0.1"/><path fill-rule="evenodd" class="f" d="m238.8 358.8c-2.3-1.1-4.2-2.3-5.9-3.6-1.7-1.4-3-3-4.2-4.7-5.5-8.3-4.1-19.4-0.4-27.9 3.1-7 8.7-12.7 10.2-21.5 0.5-3.1 1-6.4 3.8-1.1 0.4 0.8 0.9 1.8 1.4 3.3-1.4-5.5 2.9-17.3 4.3-21.3 1.4-3.5 2.7-4.6 3 0.4"/><path  d="m244 299.2c0 0 6.9 14.2 7.8 21.9 0.7 7.1-7 21.8-7 21.8 0 0 3.8-13.7 3.3-21-0.5-6.5-6.5-19.5-6.5-19.5l2.4-3.2z"/><path fill-rule="evenodd" class="g" d="m249.1 432.9c6-0.5 10.7-2.5 16.2-4.5 8.4-3.2 16-6 30.9-2.3 4.1 1.1 8.4 2.9 13 4.9 9.7 4.1 20.3 8.7 32.7 7.8"/><path fill-rule="evenodd" class="g" d="m342 438.8l1.1-4"/><path fill-rule="evenodd" class="g" d="m343.1 434.8c-5.3-4.2-7-12.1-8.6-19.5-0.5-2-0.9-3.9-1.4-5.9"/><path fill-rule="evenodd" class="g" d="m333.1 409.4l-0.4-1.6-1.6-0.1"/><path fill-rule="evenodd" class="g" d="m331.1 407.7c-9.1-0.7-15.4-3.5-23.5-6.3-3.4-1.3-6.2-3-10.6-4.4-12-3.7-24.3-0.1-34.4 2.4-5.4 1.4-9.8 5-14.6 5.1"/><path fill-rule="evenodd" class="g" d="m248 404.5h-0.7"/><path fill-rule="evenodd" class="g" d="m247.2 404.5c-4.7-0.2-6.2-3.7-11.5-5.1-10.1-2.6-21.1-5.4-33-1.7-4.4 1.4-9.3 4.3-12.8 5.5-8 2.9-14.4 4.8-22.7 4.4"/><path fill-rule="evenodd" class="g" d="m167.1 407.7l-1.5 0.1-0.5 1.6"/><path fill-rule="evenodd" class="g" d="m165.1 409.4c-0.5 2-0.9 3.9-1.4 5.9-1.6 7.4-3.4 15.3-8.7 19.5"/><path fill-rule="evenodd" class="g" d="m155.1 434.8l1.2 3.9"/><path fill-rule="evenodd" class="g" d="m156.3 438.8c12.4 1 23.2-3.6 32.7-7.8 4.6-2 9-3.8 13.1-4.9 14.9-3.7 22.4-0.9 30.9 2.3 5.5 2 10.3 4 16.2 4.5"/></svg>